<svg xmlns="http://www.w3.org/2000/svg" viewBox="0 0 100 100">
  <rect x="10" y="45" width="80" height="35" rx="5" fill="#e63946" />
  <rect x="65" y="35" width="25" height="35" rx="5" fill="#e63946" />
  <rect x="70" y="40" width="15" height="15" rx="2" fill="#a8dadc" />
  <!-- Ladder -->
  <rect x="10" y="32" width="55" height="2" fill="#adb5bd" />
  <rect x="10" y="37" width="55" height="2" fill="#adb5bd" />
  <rect x="17" y="32" width="2" height="7" fill="#adb5bd" />
  <rect x="27" y="32" width="2" height="7" fill="#adb5bd" />
  <rect x="37" y="32" width="2" height="7" fill="#adb5bd" />
  <rect x="47" y="32" width="2" height="7" fill="#adb5bd" />
  <rect x="57" y="32" width="2" height="7" fill="#adb5bd" />
  <!-- Blue Lights -->
  <rect x="70" y="28" width="5" height="7" fill="#0077b6" />
  <rect x="80" y="28" width="5" height="7" fill="#0077b6" />
  <!-- Wheels -->
  <circle cx="30" cy="80" r="10" fill="#333" />
  <circle cx="30" cy="80" r="4" fill="#666" />
  <circle cx="75" cy="80" r="10" fill="#333" />
  <circle cx="75" cy="80" r="4" fill="#666" />
  <!-- Highlight -->
  <rect x="15" y="55" width="45" height="15" rx="2" fill="white" opacity="0.1" />
</svg>
